<svg xmlns="http://www.w3.org/2000/svg" width="152" height="152"><path d="M73.25 15.525C72.013 16.847 71 18.52 71 19.244c0 .723-.9 1.963-2 2.756-1.1.793-2 2.143-2 3 0 .857-.9 2.207-2 3-1.1.793-2 2.143-2 3 0 .857-.9 2.207-2 3-1.1.793-2 2.143-2 3 0 .857-.9 2.207-2 3-1.1.793-2 2.143-2 3 0 .857-.9 2.207-2 3-1.1.793-2 2.143-2 3 0 .857-.9 2.207-2 3-1.1.793-2 2.143-2 3 0 .857-.9 2.207-2 3-1.1.793-2 2.143-2 3 0 .857-.9 2.207-2 3-1.1.793-2 2.143-2 3 0 .857-.9 2.207-2 3-1.1.793-2 2.143-2 3 0 .857-.9 2.207-2 3-1.1.793-2 2.242-2 3.221 0 .978-.45 1.779-1 1.779s-1 1.35-1 3-.45 3-1 3c-.571 0-1 3-1 7s.429 7 1 7c.55 0 1 1.135 1 2.522C29 106.35 38.86 117 41.478 117c.837 0 1.522.45 1.522 1s.9 1 2 1 2 .45 2 1 2.25 1 5 1 5-.45 5-1 .9-1 2-1 2-.45 2-1 .9-1 2-1c1.152 0 2-.667 2-1.571 0-1.516 2.255-4.429 3.429-4.429.314 0 .571 1.35.571 3s-.45 3-1 3-1 1.35-1 3-.45 3-1 3-1 1.251-1 2.779c0 1.632-.826 3.374-2 4.221-1.1.793-2 1.792-2 2.221 0 .428 6.75.779 15 .779s15-.351 15-.779c0-.429-.9-1.428-2-2.221-1.174-.847-2-2.589-2-4.221 0-1.528-.45-2.779-1-2.779s-1-1.35-1-3-.45-3-1-3-1-1.35-1-3 .257-3 .571-3c1.174 0 3.429 2.913 3.429 4.429 0 .904.848 1.571 2 1.571 1.1 0 2 .45 2 1s.9 1 2 1 2 .45 2 1 2.25 1 5 1 5-.45 5-1 .9-1 2-1 2-.45 2-1 .685-1 1.522-1C113.14 117 123 106.35 123 103.522c0-1.387.45-2.522 1-2.522.571 0 1-3 1-7s-.429-7-1-7c-.55 0-1-1.35-1-3s-.45-3-1-3-1-.801-1-1.779c0-.979-.9-2.428-2-3.221-1.1-.793-2-2.143-2-3 0-.857-.9-2.207-2-3-1.1-.793-2-2.143-2-3 0-.857-.9-2.207-2-3-1.1-.793-2-2.143-2-3 0-.857-.9-2.207-2-3-1.1-.793-2-2.143-2-3 0-.857-.9-2.207-2-3-1.1-.793-2-2.143-2-3 0-.857-.9-2.207-2-3-1.1-.793-2-2.143-2-3 0-.857-.9-2.207-2-3-1.1-.793-2-2.143-2-3 0-.857-.9-2.207-2-3-1.1-.793-2-2.143-2-3 0-.857-.9-2.207-2-3-1.1-.793-2-2.143-2-3 0-.857-.9-2.207-2-3-1.1-.793-2-2.038-2-2.766 0-1.145-4.383-6.343-5.205-6.173-.162.034-1.308 1.143-2.545 2.464" fill="undefined" fill-rule="evenodd"/></svg>